<?xml version="1.0" encoding="UTF-8" standalone="no"?>
<!DOCTYPE svg PUBLIC "-//W3C//DTD SVG 1.1//EN" "http://www.w3.org/Graphics/SVG/1.1/DTD/svg11.dtd">
<svg width="100%" height="100%" viewBox="0 0 278 98" version="1.1" xmlns="http://www.w3.org/2000/svg" xmlns:xlink="http://www.w3.org/1999/xlink" xml:space="preserve" xmlns:serif="http://www.serif.com/" style="fill-rule:evenodd;clip-rule:evenodd;stroke-linecap:round;stroke-miterlimit:1;">
    <g transform="matrix(1,0,0,1,-53.2929,-173.293)">
        <g id="Logo" transform="matrix(1,0,0,1,-56.2155,77)">
            <path d="M159.692,108C160.915,110.128 162.226,112.486 163.556,115L178,115L182.562,121L200.452,121C201.143,119.785 202.45,118.964 203.947,118.964C206.164,118.964 207.964,120.765 207.964,122.982C207.964,125.2 206.164,127 203.947,127C202.464,127 201.169,126.196 200.472,125L180,125L175.318,118.964L165.601,118.964C167.527,122.802 169.419,126.887 171.066,131L187.487,131C188.179,129.785 189.485,128.964 190.982,128.964C193.2,128.964 195,130.765 195,132.982C195,135.2 193.2,137 190.982,137C189.5,137 188.204,136.196 187.508,135L172.585,135C173.676,138.055 174.595,141.086 175.254,144L197.363,144L202,137L216.508,137C217.204,135.804 218.5,135 219.982,135C222.2,135 224,136.8 224,139.018C224,141.235 222.2,143.036 219.982,143.036C218.947,143.036 218.004,142.644 217.291,142L204.245,142L199.375,149L176.078,149C176.104,150.567 175.706,152.26 175.017,154L205.543,154C206.24,152.804 207.536,152 209.018,152C211.235,152 213.036,153.8 213.036,156.018C213.036,158.235 211.235,160.036 209.018,160.036C207.983,160.036 207.039,159.644 206.327,159L172.387,159C170.939,161.267 169.212,163.489 167.489,165.5L192,165.5L196.171,173L208.487,173C209.179,171.785 210.485,170.964 211.982,170.964C214.2,170.964 216,172.765 216,174.982C216,177.2 214.2,179 211.982,179C210.967,179 210.039,178.622 209.331,178L194,178L189.882,170.5L162.837,170.5C160.648,172.679 159.057,174.031 159,174C158.933,173.963 158.912,175.273 158.914,177L175.487,177C176.179,175.785 177.485,174.964 178.982,174.964C181.2,174.964 183,176.765 183,178.982C183,181.2 181.2,183 178.982,183C177.116,183 175.546,181.725 175.095,180L158.932,180C158.958,182.574 159,185.508 159,185.508C159,185.508 161,186.905 161,188.982C161,191.2 159.2,193 156.982,193C154.765,193 152.964,191.2 152.964,188.982C152.964,186.881 155,185.487 155,185.487L155,171C155,171 171,159 171,148C171,136.955 154,110 152.964,110.036C152,110.069 139,128 137,137.5C136.485,139.946 131,133 131,133C137.764,114.075 152.964,97 152.964,97L157.5,104L182.543,104C183.24,102.804 184.536,102 186.018,102C188.235,102 190.036,103.8 190.036,106.018C190.036,108.235 188.235,110.036 186.018,110.036C184.521,110.036 183.214,109.215 182.523,108L159.692,108Z" style="fill:url(#_Linear1);stroke:white;stroke-width:1px;"/>
            <path d="M135.5,142.63C131,157 143,162 143,161.964C143,138 117.288,131.427 116.966,133.75C111.966,169.75 145,176 144,176C108,176 107.918,126.417 112,127C154,133 147.713,170.251 148,170C148.287,169.749 123,167 129.5,137.722" style="fill:url(#_Linear2);stroke:white;stroke-width:1px;"/>
        </g>
        <g transform="matrix(1,0,0,1,-69.3468,103.41)">
            <text x="240.737px" y="146.058px" style="font-family:'Uroob';font-weight:700;font-size:96px;fill:rgb(29,199,44);">pwire</text>
        </g>
    </g>
    <defs>
        <linearGradient id="_Linear1" x1="0" y1="0" x2="1" y2="0" gradientUnits="userSpaceOnUse" gradientTransform="matrix(93,0,0,96,131,145)"><stop offset="0" style="stop-color:rgb(225,0,255);stop-opacity:1"/><stop offset="0.44" style="stop-color:rgb(158,37,255);stop-opacity:1"/><stop offset="1" style="stop-color:rgb(0,123,255);stop-opacity:1"/></linearGradient>
        <linearGradient id="_Linear2" x1="0" y1="0" x2="1" y2="0" gradientUnits="userSpaceOnUse" gradientTransform="matrix(37.9656,0,0,49.0051,110.216,151.497)"><stop offset="0" style="stop-color:rgb(29,199,44);stop-opacity:1"/><stop offset="0.46" style="stop-color:rgb(38,181,32);stop-opacity:1"/><stop offset="1" style="stop-color:rgb(62,136,0);stop-opacity:1"/></linearGradient>
    </defs>
</svg>
